<?xml version="1.0" encoding="utf-8"?>
<!-- Generator: Adobe Illustrator 24.2.3, SVG Export Plug-In . SVG Version: 6.00 Build 0)  -->
<svg version="1.1" id="Layer_1" xmlns="http://www.w3.org/2000/svg" xmlns:xlink="http://www.w3.org/1999/xlink" x="0px" y="0px"
	 viewBox="0 0 100 100" style="enable-background:new 0 0 100 100;" xml:space="preserve">
<style type="text/css">
	.st0{fill:#FFFFFF;}
</style>
<path class="st0" d="M83.3,21.5c-8-6.4-20.6-7.5-21.1-7.5c-0.8-0.1-1.6,0.4-2,1.2c0,0.1-0.3,0.7-0.6,1.7c5.3,0.9,11.7,2.7,17.6,6.3
	c0.9,0.6,1.2,1.8,0.6,2.8c-0.4,0.6-1,0.9-1.7,0.9c-0.4,0-0.7-0.1-1.1-0.3C65,20.3,52.4,20,50,20s-15,0.3-25,6.6
	c-0.9,0.6-2.2,0.3-2.8-0.6c-0.6-0.9-0.3-2.2,0.6-2.8c5.9-3.6,12.3-5.4,17.6-6.3c-0.3-1-0.6-1.6-0.6-1.7c-0.3-0.8-1.1-1.3-2-1.2
	c-0.5,0-13.1,1.1-21.2,7.6C12.4,25.5,4,48.3,4,68c0,0.3,0.1,0.7,0.3,1c5.8,10.2,21.7,12.9,25.3,13c0,0,0,0,0.1,0
	c0.6,0,1.2-0.3,1.6-0.8l3.7-5C25,73.6,20,69.3,19.7,69c-0.8-0.7-0.9-2-0.2-2.8c0.7-0.8,2-0.9,2.8-0.2c0.1,0.1,9.4,8,27.6,8
	c18.3,0,27.6-7.9,27.7-8c0.8-0.7,2.1-0.6,2.8,0.2c0.7,0.8,0.7,2.1-0.2,2.8c-0.3,0.3-5.3,4.6-15.2,7.1l3.7,5c0.4,0.5,1,0.8,1.6,0.8
	c0,0,0,0,0.1,0c3.6-0.1,19.5-2.8,25.3-13c0.2-0.3,0.3-0.6,0.3-1C96,48.3,87.6,25.5,83.3,21.5z M37,60c-3.9,0-7-3.6-7-8s3.1-8,7-8
	s7,3.6,7,8S40.9,60,37,60z M63,60c-3.9,0-7-3.6-7-8s3.1-8,7-8s7,3.6,7,8S66.9,60,63,60z"/>
</svg>
