<?xml version="1.0" encoding="utf-8"?>
<!-- Generator: Adobe Illustrator 24.2.3, SVG Export Plug-In . SVG Version: 6.00 Build 0)  -->
<svg version="1.1" xmlns="http://www.w3.org/2000/svg" xmlns:xlink="http://www.w3.org/1999/xlink" x="0px" y="0px"
	 viewBox="0 0 82.6 69.7" style="enable-background:new 0 0 82.6 69.7;" xml:space="preserve">
<style type="text/css">
	.st0{display:none;opacity:5.000000e-02;enable-background:new    ;}
	.st1{display:none;opacity:7.000000e-02;enable-background:new    ;}
	.st2{fill:#FFFFFF;}
</style>
<g id="Layer_2">
</g>
<g id="Layer_1">
	<path class="st0" d="M5.2,32.3C29.7,21.2,58.4,9.2,62.8,7.4c9.8-3.8,14,0.1,13.3,6.3c-0.8,7.7-4.7,30-7.1,46
		c-1.4,9.4-6.5,12.2-12.2,8.6c-4.3-2.8-19.2-12.5-23.2-15.8c-2.7-2.3-4.5-4.8-2.6-7.4c0.6-0.8,2-2.3,2.8-3.1c4-3.8,3.4-4.7-1.4-1.2
		c-0.6,0.4-3.9,2.8-5.2,3.7c-3.3,2.2-6.4,2.3-11.6,0.6c-4.2-1.4-8.3-2.6-10.9-3.7C1.2,39.8-0.1,34.7,5.2,32.3z"/>
	<path class="st1" d="M7.4,32.7C30.1,22.5,58,10.9,62.1,9.2c9.8-4,13.4-1.6,12.3,6c-1,7.1-4.4,29-6.9,43.6c-1.4,8.6-5.6,10.5-11.1,7
		C53.1,63.7,39.3,54.6,36,52c-2.6-2-5.3-4.4-2.1-7.8c1-1.1,6.8-6.7,11.1-10.8c2.5-2.4,1.6-3.6-1.4-1.5C38,35.6,29,41.6,27.4,42.7
		c-3.1,2.1-6,2.6-11,1c-4-1.2-7.8-2.5-9.8-3.2C2.1,38.7,2.1,35,7.4,32.7z"/>
	<path class="st2" d="M9.5,33c21-9.2,48.1-20.5,51.9-22c9.8-4.1,12.8-3.3,11.3,5.7c-1.1,6.5-4.2,28-6.7,41.3
		c-1.5,7.9-4.8,8.9-10,5.4c-2.5-1.6-15.1-10-17.9-12c-2.5-1.8-5.9-3.9-1.6-8.2c1.5-1.5,11.6-11.1,19.5-18.6c1-1-0.3-2.6-1.5-1.8
		C44,30,29.3,39.7,27.5,41c-2.8,1.9-5.5,2.8-10.4,1.4c-3.7-1.1-7.3-2.3-8.7-2.8C3,37.7,4.3,35.3,9.5,33z"/>
</g>
</svg>
