<?xml version="1.0" encoding="utf-8"?>
<!-- Generator: Adobe Illustrator 23.0.1, SVG Export Plug-In . SVG Version: 6.00 Build 0)  -->
<svg version="1.1" id="Layer_1" xmlns="http://www.w3.org/2000/svg" xmlns:xlink="http://www.w3.org/1999/xlink" x="0px" y="0px"
	 viewBox="0 0 50 50" style="enable-background:new 0 0 50 50;" xml:space="preserve">
<style type="text/css">
	.st0{fill:#333333;}
	.st1{clip-path:url(#SVGID_2_);}
	.st2{fill:url(#SVGID_3_);}
	.st3{fill:url(#SVGID_4_);}
</style>
<circle class="st0" cx="25" cy="25" r="23"/>
<g>
	<defs>
		<circle id="SVGID_1_" cx="25" cy="25" r="24"/>
	</defs>
	<clipPath id="SVGID_2_">
		<use xlink:href="#SVGID_1_"  style="overflow:visible;"/>
	</clipPath>
	<g class="st1">
		<g>
			
				<linearGradient id="SVGID_3_" gradientUnits="userSpaceOnUse" x1="58.6258" y1="52.4774" x2="-17.712" y2="52.4774" gradientTransform="matrix(0.9525 0.3046 -0.3046 0.9525 5.7563 -6.9016)">
				<stop  offset="0" style="stop-color:#D8FF55"/>
				<stop  offset="9.608457e-02" style="stop-color:#CFFC52"/>
				<stop  offset="0.256" style="stop-color:#B5F54B"/>
				<stop  offset="0.4599" style="stop-color:#8CE83F"/>
				<stop  offset="0.7" style="stop-color:#52D72F"/>
				<stop  offset="0.9677" style="stop-color:#09C21A"/>
				<stop  offset="1" style="stop-color:#00BF17"/>
			</linearGradient>
			<path class="st2" d="M47.5,54c0-0.6-0.1-1-0.2-1.6c-0.2-0.5-0.3-0.8-0.7-1.4c-0.2-0.1-0.3-0.1-0.3-0.3c-0.1-0.2-0.2-0.6-0.3-0.8
				l0.3-0.9c0.1-0.3,0-0.7,0-1.1c-0.1-0.2-0.4-0.5-0.5-0.7c-0.6-0.5-1.2-0.8-1.9-1.1c-1.6-1.4-3.3-2.5-4.9-3.8
				c-0.2-0.1-0.3-0.3-0.4-0.5c-0.1-0.2-0.3-0.3-0.2-0.4c0-0.7-0.3-1.4-0.7-2c-0.4-0.5-0.9-0.8-1.4-0.8c-0.6,0-1.2,0.2-1.6,0.4
				c-0.3,0.3-0.7,0.5-1,0.8c-1.6,0.8-3.3,1-4.9,1.9c-0.4,0.2-0.7,0.3-0.9,0.6c-0.1-0.4-0.1-0.8-0.2-1.2c-0.1-0.2-0.4-0.5-0.5-0.7
				c0.2-1.8-0.1-3.7-0.7-5.5c-0.2-0.6-0.4-1.2-0.5-1.8c0.2,0.4,0.6,0.5,0.9,0.8c0.2,0.4,0.5,0.9,0.8,1c0.3,0.1,0.6,0,0.8-0.1
				c0.2,0.1,0.5,0.2,0.7,0.1c0.6-0.2,1.1-0.4,1.6-0.8c0.5-0.6,0.8-1.4,1-2c0.1-0.2,0.3-0.3,0.3-0.4c0.1-0.3-0.1-0.8-0.2-1
				c-0.5-0.7-0.4-1.6-0.7-2.4c-0.2-1.2-0.4-2.3,0-3.5c0.1-0.2,0.2-0.5,0.2-0.7c0-1.1-0.1-1.9-0.4-2.7c0.2,0.1,0.4-0.1,0.6-0.2
				c0.1-0.2,0.2-0.1,0.3-0.3c0.1-0.2,0.3-0.3,0.3-0.3c0.2,0.1,0.6,0,0.8-0.1c0.2-0.1,0.4-0.2,0.7-0.3c0.2-0.1,0.3-0.4,0.5-0.6l0,0
				c0.2,0.1,0.6,0,0.8-0.1c0.2-0.1,0.4-0.2,0.7-0.3c0.2-0.1,0.4-0.2,0.5-0.6l0,0l0.2,0.1c0.4-0.1,0.6-0.2,0.8-0.3
				c0.6-0.2,0.8-0.3,1.1-0.6l0,0c0.4-0.1,0.6-0.2,0.8-0.3c0.4-0.1,0.7-0.3,1.1-0.6c0.1-0.2,0.2-0.1,0.2-0.1c0.2-0.1,0.4-0.1,0.6-0.2
				c0.2-0.1,0.6-0.2,0.8-0.3c0.2-0.1,0.2-0.1,0.4-0.2c0.4-0.2,1-0.2,1.4-0.4l0.2-0.1c-0.2,0.1-0.4,0.1-0.6,0.2c0,0-0.2-0.1-0.6,0
				c-0.2,0.1-0.4,0.1-0.6,0.2s-0.4,0.1-0.6,0.2l0.3,0.1c-0.2-0.1-0.2,0.1-0.4,0.1c-0.2,0.1-0.6,0.2-0.8,0.1
				c-0.2,0.1-0.4,0.1-0.6,0.2c0,0-0.2,0.1-0.4,0.1c-0.7,0-1.3,0.1-2,0.3c-0.2-0.1-0.2,0.1-0.4,0.1c-0.3,0.3-0.7,0.3-0.8,0.3
				c-0.4,0.1-1,0.1-1.2,0.4l0,0c-0.2-0.1-0.5-0.2-0.7,0c-0.6,0-1,0.1-1.5,0.5l0,0c-0.2-0.1-0.5-0.2-0.7,0C32,17.9,31.7,18,31.7,18
				c-0.4-0.5-0.7-0.6-1-0.9c-1.2-0.9-2.5-1.5-4-2c-0.5-0.2-0.8-0.3-1.3-0.6c-0.7-0.2-1.1-0.5-1.6-0.9c-0.5-0.3-0.9-0.8-1.3-1.3
				c0.1,0.4,0.3,0.7,0.6,0.9c0.4,0.5,1,1.1,1.5,1.2c-1-0.3-1.9-1-2.8-1.7C21.2,12.4,20.6,12,20,12c-0.6,0-1.2,0.4-1.7,0.8
				c0.4-0.2,1.1-0.4,1.6-0.4c0.9,0.1,1.6,0.7,2.3,1.1c-0.7-0.2-1.1-0.5-1.8-0.8c-0.6,0-1,0.2-1.5,0.5c0.4-0.1,0.7-0.3,1-0.2
				c0.6,0,1.2,0.4,1.7,0.5c-0.8,0.3-1.8,0.4-2.4,0.5c-0.6,0.2-1.3,0.1-2-0.1c-0.3-0.1-0.8-0.4-1.1-0.7c0.1,0.2,0.3,0.7,0.7,0.8
				c0.5,0.3,1,0.5,1.5,0.7c-0.6,0-1.1,0-1.7-0.4c-0.6-0.4-1-0.9-1.3-1.3c0.2,0.4,0.2,1,0.5,1.3c0.2,0.4,0.7,0.6,1.1,0.7
				c-0.3-0.1-0.7-0.2-1.1-0.5c-0.3-0.1-0.6-0.4-0.9-0.8c0.2,0.4,0.4,1.1,0.9,1.4c0.3,0.3,0.6,0.4,0.9,0.7c-0.2-0.1-0.6,0-0.7,0
				c-0.9-0.1-1.6-0.1-2.6-0.1s-1.8,0.5-2.6,1c0.4-0.2,1.1-0.4,1.7-0.6c0.4-0.1,1-0.1,1.3-0.1c-1,0.2-2,0.5-2.9,0.9
				c-0.5,0.4-1.2,0.7-1.4,1.4c-0.2,0.5,0,1.1,0.2,1.7c-0.1-0.4-0.3-0.8-0.1-1.3s0.6-0.7,1.1-1.1c-0.3,0.5-0.9,1-0.9,1.6
				c0.2,0.6,0.6,1.1,1,1.4c-0.3-0.3-0.5-0.7-0.4-1.1c-0.1-0.4,0.4-0.6,0.7-0.9c0.7-0.5,1.7-0.6,2.5-0.7c-0.7,0.3-1.5,0.6-1.9,1.3
				c-0.3,0.5-0.4,1.2-0.2,1.8c0.1-0.3,0-0.7,0.3-1c0.3-0.5,0.9-0.6,1.4-1c-0.1,0.3-0.4,0.6-0.5,1c-0.4,0.6-0.9,1.2-1.7,1.7
				c-0.4,0.2-1,0.2-1.3,0.1c-0.5-0.3-0.9-0.8-1-1.4c0.2,0.4,0.2,1,0.7,1.3c0.3,0.3,0.8,0.4,1.3,0.6c-0.6,0-1.3,0.1-1.7-0.4
				c-0.5-0.3-0.6-1.1-0.6-1.7c-0.2,0.7-0.2,1.2,0.1,1.9c0.4,0.5,1,0.9,1.5,1c-0.5-0.2-0.8-0.3-1.3-0.6c-0.3-0.3-0.6-0.6-0.8-1
				c0.1,0.8,0.7,1.3,1.3,1.7c0.8,0.4,1.5,0.5,2.3,0.4c-0.3,0.3-0.7,0.5-1.1,0.4c-0.7,0-1.6-0.3-2.4-0.2c-0.6,0-0.9,0.6-1.3,1.1
				c0.3-0.3,0.8-0.7,1.3-0.7c0.7,0,1.4,0.3,1.9,0.4c-0.4,0.1-0.9-0.1-1.3,0c-0.4,0.1-1,0.1-1.2,0.4c-0.3,0.3-0.3,0.8-0.2,1.2
				c0.1-0.2,0-0.6,0.2-0.7c0.3-0.3,0.7-0.3,0.8-0.3c0.3,0.1,0.9,0.1,1.4,0.4c-0.6,0-1,0.1-1.3,0.5c-0.3,0.5-0.4,0.8-0.6,1.3
				c-0.3,0.3-0.4,0.8-0.6,1.3c-0.5,1-0.7,2.2-0.4,3.4c0.3,0.8,0.6,1.7,1.3,2.3c-0.2-0.4-0.6-1.1-0.6-1.5c-0.1-0.8-0.1-1.5,0.3-2.1
				c0.2-0.5,0.5-1,0.7-1.5l-0.1,0.2C8.2,30.3,7.8,31,7.9,32c0.1,1,0.5,1.8,1,2.6c-0.1-0.2-0.3-0.7-0.4-1.1c-0.2-0.6-0.3-1.4-0.1-2.1
				c0.3-1,1.1-1.7,1.7-2.4c-0.4,0.8-0.8,1.4-1.1,2.3c-0.2,0.5-0.2,1.1,0,1.7c0.1,0.4,0.3,0.8,0.3,1.4c0,0.6,0,1.1-0.5,1.5
				c-0.5,0.4-1.2,0.4-1.7,0.2c-0.5-0.2-0.9-0.7-1.3-1.2c0.1,0.4,0.3,0.8,0.5,1.3c0.3,0.3,0.8,0.4,1.1,0.7c-1-0.3-2.1-0.3-3.1-0.2
				c-0.4,0.1-1,0.2-1.3,0.5s-0.2,0.7-0.1,0.9c0.2,0.4,0.5,0.9,0.7,1.3c-0.2-0.4-0.5-0.7-0.4-1.1s0.3-0.5,0.5-0.4c0.6,0,1.3,0,2,0.3
				c0.3,0.1,0.8,0.3,1.1,0.4c-0.3-0.1-0.7,0-1.1-0.2c-0.2-0.1-0.4,0.1-0.6,0.2c-0.1,0.2-0.1,0.3,0,0.6c0.1,0.4,0.3,0.7,0.6,0.9
				c-0.1-0.2-0.2-0.6-0.1-0.8C5.7,39,6.1,38.9,6.3,39c0.9,0.1,1.8,0.4,2.7,0.5c0.7,0,1.5-0.1,2-0.5s0.7-0.9,0.7-1.5
				c0,0.6,0,1.1-0.3,1.6c-0.4,0.6-1.2,0.7-1.8,0.9c-0.8,0.1-1.5-0.1-2.4-0.2C8,40.1,9,40.4,9.9,40.5c0.6,0,1-0.1,1.5-0.1
				c-0.7,0.3-1.3,0.5-2,0.5c-0.6,0-0.8-0.3-1.4-0.3c0.5,0.2,0.8,0.4,1.3,0.6c0.5,0.2,1.1,0.2,1.6,0.1c-0.4,0.2-1.1,0.6-1.6,0.4
				c-0.3-0.1-0.8-0.4-1.1-0.5c0.3,0.3,0.6,0.6,1,0.9c0.5,0.2,0.8,0.3,1.4,0.3c-2.5,1.8-5.3,3.2-8.2,3.9c-0.7,0-1.2-0.2-2-0.3
				s-1.6-0.1-2.3,0.2c-0.4,0.1-0.6,0.2-1.1,0.4C-4,47.1-5.1,47.3-6,48.1c-0.7,0.5-1.3,1.3-1.8,2c-0.7-0.2-1.2-0.4-1.8-0.8
				c-0.9-0.7-1.6-1.3-2.3-2.1c-0.6-0.6-1.1-1.3-1.4-2c-0.1-0.4-0.3-0.7-0.6-0.9c-0.7-0.8-1.5-1.6-2.5-2.3c-0.6-0.4-1.4-0.4-2.1-0.3
				c-0.8,0.1-1.5,0.6-2.1,1.2c-0.8,0.7-1.4,1.6-1.9,2.4c-0.7-0.2-1.4-0.4-1.7-1.1c-0.4-0.5-0.4-1.1-0.6-1.7c0,0.6-0.2,1.1,0.1,1.5
				c0.1,0.2,0.2,0.6,0.5,0.9c-0.6-0.6-1.1-1.1-1.1-1.8c0-0.7,0.3-1.4,0.5-2.1c-0.3,0.5-0.4,0.8-0.8,1.2c-0.2,0.7-0.4,1.2-0.3,2
				c0.1,0.8,0.7,1.3,1.3,1.9c-0.5-0.3-1-0.5-1.2-0.9c-0.3-0.3-0.5-0.7-0.7-1.2c0.3,0.8,0.6,1.7,1.2,2.2s1.2,0.9,2,1.4
				c-0.3,1.4-0.2,2.9-0.3,4.4c-0.7-0.2-1.5-0.5-2.3-0.5c-0.4,0.1-1,0.1-1.2,0.4c-0.3,0.5-0.7,0.9-0.6,1.3c0.2-0.7,0.7-1.1,1.5-1.2
				c0.7,0,1.4,0.3,2.1,0.5c-0.7,0-1.4,0.1-2,0.5c-0.3,0.3-0.6,0.6-0.7,0.9c-0.6-1.1-0.3-0.7-0.1-0.4c-0.1-0.2-0.2-0.6-0.1-1
				c0.1-0.3,0.6-0.6,0.9-0.6c0.8-0.1,1.5-0.1,2.2,0.1c0.1,0.4,0.2,0.6,0.2,1s0,0.6,0.1,1c-0.5-0.2-0.9-0.1-1.4-0.3
				c-0.7,0-1.6-0.1-2.3,0.2c-0.7,0.3-1.2,0.9-1.6,1.5c0.3-0.5,0.8-0.7,1.4-0.9c0.8-0.3,1.6-0.2,2.5-0.1c-0.8,0.1-1.5,0.1-2,0.5
				c-0.5,0.4-0.8,0.9-1.2,1.5c0.6-0.6,1.3-1.1,1.9-1.3c0.7,0,1.5,0.1,2.4,0.2c-0.1,0.3-0.4,0.8-0.7,1.1c-0.3,0.3-0.7,0.5-1.1,0.6
				c0.4-0.1,0.8-0.1,1-0.2c0.4-0.1,0.5-0.4,0.9-0.6c-0.3,0.5-0.5,1-1,1.4c-0.3,0.3-0.7,0.5-1,0.8c-1.1-0.7-2.3-1.7-3.7-1.9
				c-1-0.3-2.3,0-3.1,0.5c0.6-0.2,1.5-0.5,2.1-0.3c0.7,0,1.5,0.5,2.2,0.9c-1-0.3-2-0.7-3-0.6c-1,0.2-1.7,0.8-2.5,1.4
				c0.7-0.5,1.5-1,2.4-1.1c0.8-0.1,1.6,0.3,2.2,0.9c0.5,0.3,0.9,0.7,1.4,1c-1.2-0.4-2.4-0.6-3.6-0.6c-0.6,0-1.4,0.1-1.9,0.5
				c-0.5,0.4-0.7,0.9-0.7,1.5C-34,61-34,61.6-34,62c0-0.6,0-1.1,0.3-1.6c0.3-0.5,0.7-0.5,1.2-0.7c0.4-0.1,1-0.1,1.4-0.1
				c-0.6,0-1.2,0.2-1.6,0.4c-0.2,0.7-0.4,1.2-0.5,1.5c0,0.6,0.1,1,0.1,1.5c0.1-0.2,0-0.6,0-0.7c0.1-0.3,0.2-0.7,0.5-1
				c0.4-0.2,1-0.2,1.4-0.3c0.9,0.1,1.7,0.5,2.5,1c-0.5-0.2-1.2-0.4-1.8-0.4c-0.4,0.1-1,0.1-1.2,0.4c-0.3,0.3-0.4,0.8-0.6,1.3
				c0.1-0.3,0.3-0.5,0.6-0.6c0.4-0.2,0.8-0.1,1.1,0c0.7,0.2,1.5,0.7,2,1.2c-0.5-0.2-0.8-0.4-1.4-0.4c-0.5-0.2-1.1,0-1.5,0.1
				c0.2,0.1,0.4-0.1,0.6,0c0.6,0,1.2,0.2,1.9,0.6c0.5,0.3,0.9,0.7,1.5,1.1c0.6,0.6,1.4,1,2,1.4c1.1,0.7,2.4,1.3,3.7,1.4
				c0.9,0.1,1.9-0.1,2.8-0.6c0.9-0.5,1.7-1.1,2.3-1.9c-0.4,0.6-0.7,1.1-1.2,1.5c-0.6,0.7-1.5,1.2-2.5,1.4c-1.2,0.2-2.4,0-3.4-0.4
				c1.4,0.4,2.7,0.9,4.1,0.7c1.1,0,2.2-0.4,3-1.1c1-0.8,1.6-1.9,2.1-3.1c0,0.7,0,1.3-0.3,2c-0.2,0.7-0.7,1.1-1.1,1.5
				c-0.2,0.1-0.3,0.3-0.5,0.4l-0.3,0.8c0.2-0.1,0.5-0.2,0.5-0.4c1-0.7,1.7-1.6,2.1-2.9c0.4-1.2,0.2-2.5,0-3.7
				c0.4-0.7,0.9-1.5,0.9-2.3c0-0.8-0.1-1.6-0.4-2.3c1.3-1.1,2.3-2.8,2.7-4.7c0.1-0.2,0.1-0.4,0.3-0.3c-0.2,0.5-0.3,1.1-0.4,1.8
				c0,0.6,0.3,1.1,0.5,1.5c-0.2-0.6-0.2-1.2,0-1.8c0.2-0.7,0.6-1.2,0.9-1.7c0,0.8-0.3,1.5-0.1,2.1c0.1,0.2,0,0.6,0.1,0.8
				c0.1,1,0.5,2.1,0.8,3.2c0,0.8,0.2,1.2,0.4,1.9c0.1,0.4,0.4,0.7,0.4,1.1L-8.2,62c0,0-4,2.3-5.3,3.5c-0.5,0.4-1.1,0.6-1.5,1.2
				c-0.3,0.5-0.2,1.1,0,1.7c-0.4,0.2-0.9,0.5-1.2,0.9c-0.3,0.5-0.2,1.1,0,1.7c0.1,0.2,0,0.6,0.1,0.8c0.1,1.3,0.3,2.5,0.7,3.8
				c0.1,0.2,0.1,0.4,0,0.6c0,1.9,0.8,5.9,0.8,5.9l-0.2,0.5c0,0-0.9,0.7-0.6,1.1c0.1,0.2,0.4,0.5,0.7,0.8c-0.2,0.5-0.2,1.1-0.3,1.4
				c-0.1,0.2,0.1,0.2,0.2,0.4c0.5,0.3,0.8,0.4,1.3,0.6s1,0.3,1.6,0.3c0.2-0.5,0.3-1,0.1-1.5c-0.1-0.4-0.3-0.8-0.6-1.1
				c0.1-0.3,0.2-0.7,0.2-1.1c-0.2-0.6-0.6-0.9-0.8-1.6c-0.5-0.9-0.6-1.7-0.5-2.6c0-0.7-0.1-1.5,0-2.3c0-0.7-0.8-2.5-0.8-2.5l0.6-1.9
				c0,0,2.8,5.8,3.7,8.3c0.1,0.2-0.1,0.2,0.1,0.4c0,0.6,0,1.1,0.4,1.8c0.2,0.4,0.7,0.6,1.1,0.7c-0.2,0.5-0.1,0.9,0.1,1.5
				c0.1,0.2,0.3,0.3,0.4,0.5c0.6,0.4,1.1,0.5,1.8,0.8c0.3,0.1,0.7,0.2,1-0.1c-0.1-0.4-0.1-0.8-0.4-1.2c-0.2-0.6-0.6-1.1-1-1.6
				c0,0-0.2-0.1-0.1-0.2c0.2-0.5,0.3-0.8,0-1.3c-0.2-0.4-0.7-0.8-1.1-1.1C-8.6,80-9,78.8-9.5,77.5c-0.6-2.1-1.6-6.5-1.6-6.5l0-0.1
				c1-0.6,1.9-1.3,2.8-1.7c0.2-0.1,0.6-0.2,1-0.2c0.6-0.2,1.2-0.4,1.7-0.8c0.3-0.3,0.6-0.7,0.9-1c0.5-0.2,1.1-0.4,1.4-0.9
				c0.3-0.5,0.5-1,0.7-1.5c0.6-0.2,1.3-0.5,1.8-0.9c0.5-0.4,0.7-1.1,0.9-1.8C1,62,1.8,61.9,2.5,61.4C3,61,3.3,60.5,3.7,59.9
				c0.4-0.6,0.6-1.3,0.8-2c2.4,0.8,5.2,0.9,7.6,0.4c2.2-0.4,4.2-1.5,6.1-2.7c2-1.4,3.8-3.1,5.4-5c0.9,0.3,1.7,0.7,2.5,0.4
				c0.6-0.2,0.9-0.5,1.4-0.9c0.7-0.5,1.6-0.8,2.5-1.3c2-1,3.9-2.1,6.2-2.9c1,1.5,1.8,3.2,2,5c-0.1,0.3-0.2,0.5-0.1,0.9
				c0,0.6,0,1.1,0.1,1.5c-0.2,0.1-0.3,0.3-0.3,0.5c-0.1,0.2-0.2,0.5,0,0.7c-0.4,0.1-0.7,0.5-0.8,0.9c-0.2,0.5-0.2,1.1,0.1,1.5
				c0.1,0.2,0.2,0.5,0.5,0.7s0.4,0.5,0.7,0.6c0.3,0.1,0.6,0,0.6-0.2c0.3-0.5,0.7-0.9,1.1-1.5c0.4-0.1,0.7-0.3,0.8-0.7
				c0.2-0.5,0-1.1-0.2-1.8c-0.1-0.2-0.1-0.4,0-0.7c-0.1-2.1-0.6-4.1-1.2-6.2c1,0.5,1.7,1.1,2.6,1.8c0.3,0.3,0.7,0.6,0.8,1
				c0.1,0.4,0.3,0.8,0.6,1c0.3,0.3,0.7,0.2,1,0.3c-0.2,0.5-0.3,0.9-0.3,1.4c0.1,0.2,0.2,0.5,0.4,0.5c-0.2,0.5-0.2,1.1-0.1,1.6
				c0.1,0.4,0.3,0.7,0.8,1c0.5,0.3,1.1,0.7,1.7,0.7c0.2,0.1,0.6,0,0.7-0.3C47.7,54.8,47.6,54.4,47.5,54L47.5,54z M25.3,32.9
				c-0.1-0.8-0.3-1.4-0.4-2.2c0.2,0.4,0.5,0.7,1,1.1C25.5,32.2,25.2,32.5,25.3,32.9z"/>
		</g>
	</g>
</g>
<linearGradient id="SVGID_4_" gradientUnits="userSpaceOnUse" x1="10.2074" y1="11.0832" x2="58.1945" y2="11.0832" gradientTransform="matrix(-0.3917 0.9201 -0.9201 -0.3917 48.5933 -2.1276)">
	<stop  offset="0" style="stop-color:#D8FF55"/>
	<stop  offset="9.608457e-02" style="stop-color:#CFFC52"/>
	<stop  offset="0.256" style="stop-color:#B5F54B"/>
	<stop  offset="0.4599" style="stop-color:#8CE83F"/>
	<stop  offset="0.7" style="stop-color:#52D72F"/>
	<stop  offset="0.9677" style="stop-color:#09C21A"/>
	<stop  offset="1" style="stop-color:#00BF17"/>
</linearGradient>
<path class="st3" d="M2.9,15.6C8.1,3.4,22.2-2.3,34.4,2.9s17.9,19.3,12.7,31.5c-5.2,12.2-19.3,17.9-31.5,12.7S-2.3,27.8,2.9,15.6z
	 M45.2,33.6C50,22.5,44.8,9.5,33.6,4.8S9.5,5.2,4.8,16.4s0.5,24.1,11.6,28.9S40.5,44.8,45.2,33.6z"/>
</svg>
